<svg xmlns="http://www.w3.org/2000/svg" viewBox="0 0 23.893 30"><path data-name="Path 4143" d="M13.319 22.597l1.96 2.274 2.274-1.96 2.222-1.921A12 12 0 0020.99 4.119 12 12 0 004.119 2.904a12 12 0 00-1.215 16.871l7.854 9.069c.706.81 1.438 1.686 2.575.758l.039-.026.039-.026c1.085-.993.327-1.856-.379-2.666l-.484-.562-7.358-8.507a8.979 8.979 0 01.915-12.624 8.98 8.98 0 0112.624.915 8.979 8.979 0 01-.915 12.624l-2.222 1.921-1.96-2.274-1.96-2.274-1.921-2.222a2.978 2.978 0 01.3-4.156 2.978 2.978 0 014.156.3 2.967 2.967 0 01.157 3.646c-.013.026-.039.052-.052.078a1.554 1.554 0 00.1 1.895c.993 1.137 2.078.353 2.653-.614a5.977 5.977 0 00-.588-6.978 5.966 5.966 0 00-8.39-.6 5.966 5.966 0 00-.6 8.39l1.921 2.222 1.96 2.274 1.947 2.261z" fill="#006aa5"/></svg>